<?xml version="1.0" standalone="no"?>
<!DOCTYPE svg PUBLIC "-//W3C//DTD SVG 20010904//EN"
 "http://www.w3.org/TR/2001/REC-SVG-20010904/DTD/svg10.dtd">
<svg version="1.0" xmlns="http://www.w3.org/2000/svg"
 width="335.000000pt" height="335.000000pt" viewBox="0 0 335.000000 335.000000"
 preserveAspectRatio="xMidYMid meet">
<metadata>
Created by potrace 1.14, written by Peter Selinger 2001-2017
</metadata>
<g transform="translate(0.000000,335.000000) scale(0.100000,-0.100000)"
fill="#000000" stroke="none">
<path d="M2251 2537 c-6 -6 -11 -16 -11 -23 0 -6 -8 -15 -17 -18 -19 -8 -6
-26 21 -30 10 -1 21 -7 24 -12 6 -8 57 -35 72 -39 3 0 16 -7 30 -15 71 -39
200 -103 242 -119 36 -14 45 -15 41 -5 -3 8 -9 14 -14 14 -5 0 -19 11 -31 25
-12 14 -25 25 -30 25 -5 0 -19 9 -31 21 -12 11 -69 51 -127 89 -58 38 -109 73
-115 78 -20 16 -43 20 -54 9z"/>
<path d="M2195 2440 c-7 -11 2 -47 21 -79 15 -26 48 -49 79 -57 62 -14 245
-112 272 -145 42 -51 9 -102 -82 -125 -80 -20 -136 -28 -270 -38 -71 -6 -180
-21 -180 -26 0 -1 -11 -3 -25 -5 -48 -6 -120 -27 -180 -52 -118 -51 -234 -113
-251 -136 -17 -23 6 -65 96 -181 55 -70 105 -135 110 -144 6 -9 16 -22 23 -30
7 -8 24 -29 39 -48 14 -19 28 -33 30 -30 2 2 20 0 40 -6 35 -9 55 -14 100 -24
12 -2 33 -8 45 -13 13 -4 31 -7 40 -6 10 2 20 -1 24 -6 3 -5 14 -9 25 -9 18 0
19 4 13 38 -14 69 -2 197 22 244 8 15 14 30 14 33 0 3 8 13 18 23 9 10 33 36
53 58 57 63 172 142 229 159 3 1 23 9 44 18 21 10 53 20 69 23 17 2 34 7 39
10 5 3 45 7 89 9 44 2 87 9 95 16 24 19 36 47 24 54 -6 4 -10 3 -9 -2 4 -24
-4 -32 -31 -31 -17 1 -35 7 -41 14 -6 8 -15 11 -20 8 -5 -3 -9 2 -9 10 0 9 -4
16 -9 16 -4 0 -7 10 -7 23 1 12 0 27 -3 32 -15 28 -24 145 -12 145 5 0 21 -14
35 -31 14 -17 31 -27 36 -24 6 4 -11 28 -40 56 -28 27 -55 47 -60 44 -15 -9
-128 39 -312 133 -98 49 -180 87 -183 82z m-290 -726 c88 -25 187 -54 220 -63
33 -10 59 -21 58 -27 -1 -5 -14 -37 -28 -71 -14 -33 -27 -87 -29 -120 -4 -63
-15 -69 -48 -30 -11 12 -45 51 -76 86 -88 99 -96 111 -79 111 8 0 31 -7 50
-15 45 -18 71 -20 37 -2 -83 44 -290 170 -290 178 0 4 6 6 13 4 6 -2 84 -25
172 -51z"/>
<path d="M285 2329 c-3 -4 28 -31 68 -60 77 -57 117 -82 117 -72 0 3 8 0 18
-8 20 -17 55 -36 225 -122 70 -36 135 -71 143 -77 7 -7 14 -9 14 -5 0 4 6 3
13 -3 7 -6 107 -59 223 -118 115 -58 216 -112 224 -120 13 -13 10 -19 -25 -50
-22 -19 -41 -30 -43 -24 -2 5 -9 10 -15 10 -7 0 -17 8 -24 19 -6 10 -41 35
-77 56 -35 21 -64 41 -63 44 7 30 -25 54 -171 126 -86 44 -174 90 -196 103
-21 13 -35 18 -30 10 4 -7 -1 -6 -12 3 -10 10 -41 27 -69 40 -27 13 -53 27
-56 32 -3 5 -10 9 -15 10 -21 2 -64 22 -64 29 0 4 -6 8 -13 8 -7 0 -39 14 -70
31 -40 21 -57 26 -57 17 0 -8 5 -19 11 -25 26 -26 -29 -100 -62 -83 -24 13
-39 12 -16 -1 14 -8 15 -13 5 -32 -15 -26 -19 -87 -7 -87 5 0 8 13 7 28 -2 35
8 52 32 52 26 0 37 -27 30 -75 -6 -45 -34 -60 -57 -29 -7 10 -15 15 -18 12 -3
-3 4 -17 15 -31 19 -24 22 -45 10 -57 -7 -7 -40 -79 -40 -87 0 -3 14 12 31 33
17 21 34 41 38 44 4 3 29 33 55 68 27 34 54 62 61 62 6 0 77 -33 158 -74 80
-41 148 -71 151 -68 3 3 6 1 6 -5 0 -5 11 -15 25 -21 14 -6 25 -15 25 -19 0
-5 -46 -8 -103 -9 -81 0 -114 -5 -159 -23 -178 -70 -301 -246 -300 -431 0 -41
3 -91 6 -110 11 -55 76 -178 108 -205 16 -14 27 -25 23 -25 -12 0 49 -46 97
-74 76 -44 152 -62 250 -60 47 1 92 5 100 10 7 5 19 9 26 10 8 2 37 14 65 28
101 50 194 152 226 249 7 20 18 37 25 37 8 0 29 -25 47 -55 l34 -55 499 0
c398 0 496 3 488 13 -5 6 -17 37 -27 69 l-16 56 -52 12 c-29 6 -63 14 -77 18
-14 3 -29 6 -35 7 -5 0 -16 4 -23 9 -7 4 -16 6 -18 3 -3 -3 -32 3 -65 13 -32
10 -59 15 -59 12 0 -3 -14 13 -31 36 -27 37 -33 41 -48 30 -9 -7 -52 -43 -96
-79 l-81 -66 -190 1 c-136 1 -195 5 -206 13 -8 7 -17 10 -21 7 -3 -3 -8 4 -12
16 -10 30 -2 33 40 16 28 -12 76 -16 189 -17 83 0 160 0 171 0 11 1 34 13 51
29 16 15 49 43 73 62 74 60 73 58 53 88 -26 40 -54 72 -65 72 -5 0 -5 -6 1
-13 6 -7 10 -30 8 -50 -11 -115 -143 -165 -225 -86 -36 34 -46 65 -38 120 6
45 27 73 71 96 38 20 102 19 122 -1 45 -45 17 7 -45 83 -19 25 -36 54 -36 65
-1 12 -5 22 -9 24 -7 3 -52 -31 -113 -85 -71 -63 -113 -73 -113 -27 0 25 14
43 70 85 19 15 50 41 68 58 17 17 32 28 32 24 0 -4 6 0 12 8 7 9 40 38 73 65
33 27 62 52 65 55 12 15 50 28 64 23 25 -10 19 -50 -10 -73 -15 -12 -22 -21
-17 -21 6 0 22 9 36 21 15 11 35 22 46 24 11 2 29 9 41 15 23 12 124 49 150
55 8 1 33 8 55 14 63 16 143 27 266 36 42 3 85 7 95 9 11 2 39 7 64 12 47 8
55 10 68 14 4 1 12 3 17 4 15 2 55 30 55 38 0 18 -36 48 -58 48 -12 0 -25 7
-29 15 -6 17 -103 71 -103 58 0 -4 -5 -2 -12 5 -17 17 -23 15 -37 -14 -6 -15
-14 -24 -17 -21 -4 3 -24 -5 -45 -19 -21 -13 -39 -21 -39 -17 0 5 -5 1 -10 -9
-6 -9 -7 -23 -4 -31 4 -13 11 -13 37 -5 18 6 41 17 52 25 27 18 75 17 75 -2 0
-8 -3 -14 -7 -13 -5 1 -33 -10 -63 -24 -30 -14 -62 -27 -70 -29 -19 -4 -60 22
-60 37 0 24 -38 20 -135 -13 -55 -19 -110 -36 -123 -39 -12 -2 -47 -14 -76
-25 -30 -11 -63 -22 -73 -24 -10 -2 -43 -12 -73 -23 -43 -15 -105 -22 -105
-12 0 1 -8 3 -17 5 -9 2 -40 8 -70 15 -29 6 -64 14 -77 16 -13 3 -26 6 -30 6
-3 1 -30 -10 -59 -26 -111 -57 -270 -33 -368 56 -45 41 -76 102 -68 133 4 15
2 25 -5 25 -6 0 -10 6 -9 13 2 6 -4 10 -12 8 -51 -12 -87 -15 -185 -14 -96 0
-117 4 -168 27 -32 14 -72 40 -88 57 -25 26 -37 32 -80 33 -27 2 -52 -1 -54
-5z m848 -648 c23 -16 51 -38 62 -51 l19 -21 -42 -40 c-40 -36 -62 -43 -62
-18 0 14 -41 73 -84 119 -20 21 -36 41 -36 44 0 9 55 12 78 4 13 -5 42 -21 65
-37z m-336 -58 l43 -16 -21 -33 c-11 -19 -17 -34 -12 -34 4 0 1 -5 -7 -11 -13
-9 -13 -10 0 -6 8 2 15 8 15 13 0 5 9 22 20 37 l21 28 46 -45 c40 -39 67 -82
56 -90 -1 -2 -31 -12 -65 -24 l-61 -20 -28 29 c-23 24 -25 31 -14 44 8 9 8 15
2 15 -6 0 -14 -5 -18 -11 -4 -7 -22 -9 -49 -5 -23 4 -53 3 -66 -2 -29 -11 -49
-5 -49 14 0 8 -4 14 -10 14 -5 0 -10 5 -10 11 0 6 -9 23 -19 38 -24 34 -17 46
34 60 80 22 118 21 192 -6z m-221 -90 l31 -58 -28 -29 c-16 -16 -31 -43 -35
-61 l-6 -33 -69 0 c-38 0 -71 3 -74 7 -2 4 2 30 9 58 21 77 93 173 131 173 6
0 24 -26 41 -57z m672 -1 c2 -7 8 -10 13 -6 5 3 9 1 9 -4 0 -5 21 -30 46 -55
45 -45 56 -82 25 -82 -19 0 -68 47 -62 59 2 5 -1 6 -8 2 -8 -5 -2 -16 19 -36
33 -31 38 -55 15 -64 -8 -3 -15 -1 -15 3 0 5 -7 11 -15 15 -14 5 -14 2 0 -23
13 -26 13 -30 -1 -35 -24 -9 -112 81 -119 122 -4 25 -2 32 11 32 13 0 14 3 5
13 -17 21 6 39 33 25 16 -8 18 -8 10 2 -16 16 -6 49 14 46 9 -2 18 -8 20 -14z
m-550 -150 c-34 -13 -56 -42 -50 -65 2 -5 -3 -7 -10 -5 -21 7 -21 48 -1 70 25
28 54 38 78 25 18 -10 17 -12 -17 -25z m-151 -87 c7 -22 24 -51 37 -65 l24
-25 -32 -54 c-17 -30 -37 -56 -44 -59 -26 -8 -116 106 -128 163 -11 51 -13 69
-9 75 2 4 34 6 71 6 l67 -1 14 -40z m407 -24 c26 -1 28 -3 21 -28 -11 -48 -91
-153 -116 -153 -10 0 -69 100 -69 117 0 18 42 60 65 64 11 3 31 4 45 2 14 -1
38 -2 54 -2z m1189 -50 c14 -1 16 -5 8 -19 -13 -25 -99 -30 -108 -6 -10 26 12
32 100 25z m-824 -26 c23 -14 -10 -35 -55 -35 -43 0 -60 11 -51 33 5 13 86 15
106 2z m632 -7 c6 -11 5 -19 -3 -25 -20 -12 -572 -11 -580 2 -13 17 -9 33 9
37 10 2 141 3 291 3 244 -1 275 -2 283 -17z m-1246 -2 c17 2 39 5 49 6 14 2
28 -12 52 -55 l33 -57 -32 -17 c-45 -24 -180 -24 -225 0 l-33 18 22 37 c51 83
48 81 77 73 15 -4 41 -6 57 -5z"/>
<path d="M1225 1481 c-3 -6 5 -15 17 -21 21 -10 21 -10 6 3 -10 8 -15 17 -11
20 3 4 4 7 0 7 -3 0 -8 -4 -12 -9z"/>
<path d="M1186 1435 c4 -8 11 -15 16 -15 6 0 5 6 -2 15 -7 8 -14 15 -16 15 -2
0 -1 -7 2 -15z"/>
<path d="M1224 1406 c3 -24 22 -40 31 -27 3 7 1 10 -6 9 -7 -2 -13 2 -14 9 0
6 -3 14 -7 18 -3 4 -5 0 -4 -9z"/>
<path d="M1555 2316 c-44 -12 -102 -42 -122 -61 -27 -28 -56 -98 -57 -143 l-1
-46 55 -13 c194 -44 181 -44 282 -12 400 128 396 126 368 144 -6 4 -8 9 -6 13
18 30 -109 102 -209 119 -65 11 -271 11 -310 -1z"/>
<path d="M480 2303 c0 -4 62 -36 80 -41 31 -10 230 -10 230 0 0 24 -77 41
-192 43 -65 0 -118 0 -118 -2z"/>
<path d="M273 2202 c-17 -11 -32 -57 -23 -71 5 -8 8 -3 8 15 0 17 8 35 22 46
22 18 17 25 -7 10z"/>
<path d="M940 2125 c36 -47 54 -64 62 -59 4 3 8 0 8 -6 0 -21 93 -53 163 -56
50 -2 81 3 117 18 28 11 50 24 50 27 0 4 -39 7 -87 7 -49 1 -99 4 -113 7 -14
3 -36 8 -50 11 -33 8 -131 47 -150 60 -13 10 -13 9 0 -9z"/>
<path d="M2790 2110 c0 -5 7 -10 16 -10 8 0 12 5 9 10 -3 6 -10 10 -16 10 -5
0 -9 -4 -9 -10z"/>
<path d="M2756 2088 c5 -21 8 -33 17 -81 4 -20 24 -37 45 -37 9 0 10 5 3 19
-6 10 -7 21 -4 25 3 3 1 6 -5 6 -7 0 -11 3 -11 8 3 19 -2 33 -11 27 -5 -3 -10
3 -10 13 0 11 -7 25 -15 32 -12 10 -13 8 -9 -12z"/>
<path d="M2850 1989 c0 -5 5 -7 10 -4 6 3 10 8 10 11 0 2 -4 4 -10 4 -5 0 -10
-5 -10 -11z"/>
<path d="M2618 1839 c-10 -6 -18 -7 -18 -4 0 3 -18 -4 -40 -15 -21 -11 -46
-20 -55 -20 -8 0 -15 -4 -15 -10 0 -5 -6 -10 -13 -10 -7 0 -22 -6 -32 -14 -16
-12 -17 -16 -6 -30 9 -11 18 -13 25 -7 34 29 237 29 323 0 29 -9 96 -14 157
-10 31 2 -59 64 -137 95 -74 29 -161 41 -189 25z"/>
<path d="M2525 1708 c-27 -5 -51 -11 -53 -13 -2 -2 2 -18 9 -35 13 -30 16 -31
54 -24 22 3 60 6 85 6 47 -1 120 -26 120 -41 0 -5 -15 -33 -33 -63 -31 -52
-34 -54 -62 -46 -17 5 -47 6 -69 3 -29 -4 -41 -2 -51 11 -16 23 -38 9 -25 -15
7 -14 4 -24 -11 -42 -22 -24 -45 -78 -41 -92 1 -4 -30 -7 -69 -6 -82 2 -88 9
-67 72 8 23 17 48 19 56 4 14 13 25 68 90 21 24 21 23 -15 79 -1 2 -16 -4 -33
-13 -46 -23 -149 -128 -157 -159 -6 -27 0 -151 10 -196 3 -14 9 -41 12 -60 4
-19 15 -53 25 -75 32 -72 33 -83 7 -87 -21 -3 -18 -8 31 -53 29 -27 57 -49 62
-47 5 1 9 -2 9 -8 0 -5 7 -10 15 -10 8 0 15 -4 15 -9 0 -5 10 -12 23 -16 12
-4 24 -8 27 -9 65 -23 97 -29 165 -31 44 -1 100 5 125 12 162 48 287 171 333
328 14 49 16 194 4 244 -12 48 -65 148 -97 184 -29 33 -37 37 -80 37 -27 0
-75 7 -107 15 -73 18 -183 24 -248 13z m288 -155 c43 -42 74 -102 83 -160 l6
-42 -64 0 c-64 0 -91 8 -87 25 4 21 -3 34 -32 65 -27 29 -29 36 -19 58 18 42
54 91 66 91 6 0 27 -16 47 -37z m-163 -165 c44 -47 8 -124 -53 -114 -56 9 -83
61 -52 102 15 20 15 20 18 -33 1 -10 10 -24 20 -31 16 -12 21 -12 37 3 21 19
16 52 -11 60 -10 4 -19 13 -19 21 0 21 37 17 60 -8z m-204 -63 c2 -31 19 -66
40 -86 25 -23 31 -53 14 -64 -6 -4 -19 -24 -30 -46 -11 -21 -24 -39 -29 -39
-30 0 -117 108 -126 157 -2 10 -4 18 -5 18 -4 0 -7 60 -4 66 5 10 139 4 140
-6z m454 -10 c0 -53 -35 -130 -80 -177 -47 -49 -70 -60 -70 -33 0 8 -4 15 -9
15 -5 0 -11 8 -14 18 -3 9 -13 29 -23 43 -17 26 -16 27 9 55 27 28 52 84 39
84 -4 0 -2 4 5 8 7 4 42 8 78 9 62 1 65 0 65 -22z m-295 -130 c17 0 35 3 41 7
6 5 18 6 26 3 14 -6 68 -96 68 -115 0 -13 -95 -40 -139 -40 -41 0 -110 17
-128 32 -10 8 -8 19 10 51 34 64 49 78 72 70 11 -3 34 -7 50 -8z"/>
<path d="M2323 1681 c-32 -27 -28 -33 7 -13 16 9 30 20 30 25 0 12 -14 7 -37
-12z"/>
<path d="M1504 1561 c-41 -25 -53 -42 -57 -84 -4 -35 7 -62 41 -96 7 -7 33
-16 56 -18 37 -5 48 -1 75 23 33 30 46 71 36 111 -5 22 -49 72 -63 74 -4 0
-19 2 -33 4 -15 2 -39 -5 -55 -14z"/>
</g>
</svg>
